<?xml version="1.0" standalone="no"?><!DOCTYPE svg PUBLIC "-//W3C//DTD SVG 1.1//EN" "http://www.w3.org/Graphics/SVG/1.1/DTD/svg11.dtd"><svg class="icon" width="600px" height="600.00px" viewBox="0 0 1024 1024" version="1.1" xmlns="http://www.w3.org/2000/svg"><path d="M847 80H177c-35.2 0-64 28.8-64 64v736c0 35.2 28.8 64 64 64h538c107.8 0 196-88.2 196-196V144c0-35.2-28.8-64-64-64zM311 264h210c22 0 40 18 40 40s-18 40-40 40H311c-22 0-40-18-40-40s18-40 40-40z m0 168h320c22 0 40 18 40 40s-18 40-40 40H311c-22 0-40-18-40-40s18-40 40-40z m100 247H311c-22 0-40-18-40-40s18-40 40-40h100c22 0 40 18 40 40s-18 40-40 40z m382-97.4l-53.8 94.8h39.9c2.6 0 4.7 2.1 4.7 4.7v33.2c0 2.6-2.1 4.7-4.7 4.7h-62.2v24.4H779c2.6 0 4.7 2.1 4.7 4.7v33.2c0 2.6-2.1 4.7-4.7 4.7h-62.1v64c0 2.6-2.1 4.7-4.7 4.7h-51.6c-2.6 0-4.7-2.1-4.7-4.7v-63.8h-60.1c-2.6 0-4.7-2.1-4.7-4.7v-33.2c0-2.6 2.1-4.7 4.7-4.7h60.1v-24.4h-60.1c-2.6 0-4.7-2.1-4.7-4.7v-33.2c0-2.7 2.1-4.8 4.7-4.8h36.5l-53.9-94.9c-1.7-3.1 0.4-7 4.1-7H643l44.4 85.4 44.1-85.4h57.4c3.6 0 5.9 3.8 4.1 7z" /></svg>