<?xml version="1.0" standalone="no"?><!DOCTYPE svg PUBLIC "-//W3C//DTD SVG 1.1//EN" "http://www.w3.org/Graphics/SVG/1.1/DTD/svg11.dtd"><svg class="icon" width="600px" height="600.00px" viewBox="0 0 1024 1024" version="1.1" xmlns="http://www.w3.org/2000/svg"><path d="M960.4 273.4H64.5l46.1-134.3c8-23.4 31.2-39.2 57.3-39.2H857c26.1 0 49.2 15.8 57.3 39.2l46.1 134.3z" fill="#727272" /><path d="M64.5 273.4v548.7c0 31 25.1 56.1 56.1 56.1h783.7c31 0 56.1-25.1 56.1-56.1V273.4H64.5zM391.1 738H194.2c-19.3 0-35.1-15.7-35.1-35.1s15.7-35.1 35.1-35.1H391c19.3 0 35.1 15.7 35.1 35.1s-15.7 35.1-35 35.1z m104.7-166.5H194.2c-19.3 0-35.1-15.7-35.1-35.1s15.7-35.1 35.1-35.1h301.5c19.3 0 35.1 15.7 35.1 35.1s-15.7 35.1-35 35.1zM863.4 548l-64.7 64.7c-4.1 4.1-9.4 6.1-14.8 6.1s-10.7-2-14.8-6.1c-8.2-8.2-8.2-21.4 0-29.5l24.2-24.2H665.4c-11.5 0-20.9-9.3-20.9-20.9s9.3-20.9 20.9-20.9h131.4l-27.6-27.6c-8.2-8.2-8.2-21.4 0-29.5 8.2-8.2 21.4-8.2 29.5 0l64.7 64.7c6.4 6.4 6.4 16.8 0 23.2z"  /></svg>