<?xml version="1.0" standalone="no"?><!DOCTYPE svg PUBLIC "-//W3C//DTD SVG 1.1//EN" "http://www.w3.org/Graphics/SVG/1.1/DTD/svg11.dtd"><svg class="icon" width="600px" height="600.00px" viewBox="0 0 1024 1024" version="1.1" xmlns="http://www.w3.org/2000/svg"><path d="M947.2 85.333333h-853.333333C57.6 85.333333 21.333333 113.066667 21.333333 149.333333v533.333334h981.333334V149.333333c0-36.266667-21.333333-64-55.466667-64zM21.333333 746.666667c0 36.266667 36.266667 64 72.533334 64H490.666667v85.333333h-204.8c-12.8 0-21.333333 8.533333-21.333334 21.333333s8.533333 21.333333 21.333334 21.333334h469.333333c12.8 0 21.333333-8.533333 21.333333-21.333334s-8.533333-21.333333-21.333333-21.333333H533.333333v-85.333333h413.866667c36.266667 0 55.466667-27.733333 55.466667-64v-21.333334H21.333333v21.333334z"  /></svg>