<?xml version="1.0" standalone="no"?><!DOCTYPE svg PUBLIC "-//W3C//DTD SVG 1.1//EN" "http://www.w3.org/Graphics/SVG/1.1/DTD/svg11.dtd"><svg class="icon" width="600px" height="600.00px" viewBox="0 0 1024 1024" version="1.1" xmlns="http://www.w3.org/2000/svg"><path d="M145.984 214.336a42.752 42.752 0 0 1-43.84-43.2c0-24.512 19.072-43.136 43.84-43.136h730.368c24.896 0 43.84 18.752 43.84 43.136a42.752 42.752 0 0 1-43.84 43.2H145.92z m620.032 394.88c20.416 49.024 70.4 83.84 128.448 83.84 13.76 0 26.944-1.984 39.488-5.632v278.272c0 25.856-29.184 57.472-55.424 57.472H143.808c-26.24 0-55.424-31.616-55.424-57.472V687.36c12.544 3.648 25.728 5.632 39.488 5.632 58.24 0 108.032-34.688 128.448-83.84a137.024 137.024 0 0 0 127.104 83.84c58.112 0 107.968-34.688 128.448-83.84a137.024 137.024 0 0 0 127.04 83.84 136.96 136.96 0 0 0 127.104-83.84z m165.76-356.544l90.88 225.664c0 69.056-58.496 123.584-128.64 123.584-71.68 0-128.576-56-128.576-123.52 0 68.992-56.96 123.52-127.04 123.52-70.144 0-127.104-56-127.104-123.52 0 68.992-58.432 123.52-128.576 123.52-70.144 0-127.04-56-127.04-123.52 0 68.992-58.432 123.52-128.64 123.52C56.96 601.92 0 545.92 0 478.4l87.552-225.728h844.16z" /></svg>