<?xml version="1.0" standalone="no"?><!DOCTYPE svg PUBLIC "-//W3C//DTD SVG 1.1//EN" "http://www.w3.org/Graphics/SVG/1.1/DTD/svg11.dtd"><svg class="icon" width="600px" height="600.00px" viewBox="0 0 1024 1024" version="1.1" xmlns="http://www.w3.org/2000/svg"><path d="M505.2 198.9 346.1 104.4 62.8 253.8l118.7 121.6L505.2 198.9 505.2 198.9 505.2 198.9zM505.2 553.3 181.5 376.9 64.8 515l304.6 180.5L505.2 553.3 505.2 553.3 505.2 553.3zM508.6 553.3l140.7 141.3 309.4-175.9-126.4-141.8L508.6 553.3 508.6 553.3 508.6 553.3zM653.4 749 506.9 607.6 373.1 749.5 186.2 633.3l0 110.2 323.6 187.9 326.6-185.2-0.5-112.9L653.4 749 653.4 749 653.4 749zM958.8 253.8 667.7 104.4l-159.2 94.5 323.7 176.4L958.8 253.8 958.8 253.8 958.8 253.8zM958.8 253.8" /></svg>