<?xml version="1.0" standalone="no"?><!DOCTYPE svg PUBLIC "-//W3C//DTD SVG 1.1//EN" "http://www.w3.org/Graphics/SVG/1.1/DTD/svg11.dtd"><svg class="icon" width="600px" height="600.00px" viewBox="0 0 1024 1024" version="1.1" xmlns="http://www.w3.org/2000/svg"><path d="M949.484 495.328L823.018 382.551V214.184c0-8.073-10.975-14.544-24.532-14.544h-49.097c-13.59 0-24.564 6.472-24.564 14.544v80.754l-72.575-64.763-81.768-72.952c-5.087-5.33-10.283-9.976-15.59-13.935-6.104-4.569-12.392-8.147-18.787-10.737-7.887-3.198-15.955-4.95-24.167-4.95-8.214 0-16.245 1.751-24.13 4.95-6.396 2.59-12.684 6.168-18.826 10.737-5.305 3.959-10.503 8.605-15.554 13.935l-81.768 72.952-153.469 136.916L74.389 495.328c-6.832 6.166-7.668 16.904-1.817 24.062l39.031 48.05c5.851 7.157 16.135 8.073 22.931 1.904l83.657-74.625 149.071-133.033 144.675-129.073 144.637 129.073 149.107 133.033 83.657 74.625c6.832 6.169 17.117 5.253 22.932-1.904l39.03-48.05c5.853-7.158 5.016-17.896-1.816-24.062z"  /><path d="M513.789 280.815L369.116 409.888 220.045 542.919V858.94c0 8.529 4.07 15.458 9.157 15.458h223.535V663.54h122.105v210.857h223.534c5.053 0 9.158-6.929 9.158-15.458v-316.02l-149.07-133.031-144.675-129.073z"  /></svg>