<?xml version="1.0" standalone="no"?><!DOCTYPE svg PUBLIC "-//W3C//DTD SVG 1.1//EN" "http://www.w3.org/Graphics/SVG/1.1/DTD/svg11.dtd"><svg class="icon" width="600px" height="600.00px" viewBox="0 0 1024 1024" version="1.1" xmlns="http://www.w3.org/2000/svg"><path d="M913.493333 341.333333h-317.184a21.333333 21.333333 0 0 1 0-42.666666h317.184a21.333333 21.333333 0 0 1 0 42.666666zM512 341.333333H192a21.333333 21.333333 0 0 1 0-42.666666H512a21.333333 21.333333 0 0 1 0 42.666666zM512 341.333333a21.333333 21.333333 0 0 1-21.333333-21.333333V170.666667a21.333333 21.333333 0 0 1 42.666666 0v149.333333a21.333333 21.333333 0 0 1-21.333333 21.333333zM874.666667 896h-725.333334A64.085333 64.085333 0 0 1 85.333333 832V337.664a64.426667 64.426667 0 0 1 18.773334-45.226667l145.664-145.706666A64.426667 64.426667 0 0 1 294.997333 128h434.005334a64.426667 64.426667 0 0 1 45.226666 18.773333l145.706667 145.664A64.426667 64.426667 0 0 1 938.666667 337.664V832a64.085333 64.085333 0 0 1-64 64zM294.997333 170.666667a21.504 21.504 0 0 0-15.061333 6.229333L134.229333 322.602667A21.504 21.504 0 0 0 128 337.664V832a21.376 21.376 0 0 0 21.333333 21.333333h725.333334a21.376 21.376 0 0 0 21.333333-21.333333V337.664a21.504 21.504 0 0 0-6.229333-15.061333l-145.706667-145.706667A21.504 21.504 0 0 0 729.002667 170.666667zM661.333333 714.666667a21.333333 21.333333 0 0 1-21.333333-21.333334 74.752 74.752 0 0 0-74.666667-74.666666H362.666667a21.333333 21.333333 0 0 1 0-42.666667h202.666666A117.461333 117.461333 0 0 1 682.666667 693.333333a21.333333 21.333333 0 0 1-21.333334 21.333334zM454.101333 710.101333a21.248 21.248 0 0 1-15.104-6.272l-91.434666-91.392a21.333333 21.333333 0 0 1 30.165333-30.165333l91.434667 91.392a21.333333 21.333333 0 0 1-15.061334 36.437333zM362.666667 618.666667a21.333333 21.333333 0 0 1-15.104-36.437334l91.434666-91.392a21.333333 21.333333 0 1 1 30.165334 30.165334l-91.392 91.434666a21.248 21.248 0 0 1-15.104 6.229334z" /></svg>