<?xml version="1.0" standalone="no"?><!DOCTYPE svg PUBLIC "-//W3C//DTD SVG 1.1//EN" "http://www.w3.org/Graphics/SVG/1.1/DTD/svg11.dtd"><svg class="icon" width="600px" height="573.67px" viewBox="0 0 1071 1024" version="1.1" xmlns="http://www.w3.org/2000/svg"><path d="M762.741 48c60.972 0 110.4 49.428 110.4 110.4l0.002 275.572a269.699 269.699 0 0 0-31.061-1.788c-146.758 0-265.729 118.446-265.729 264.557 0 105.669 62.225 196.868 152.185 239.259l-557.138-0.007c-60.972 0-110.4-49.428-110.4-110.4V158.4C61 97.428 110.428 48 171.4 48h591.341z m79.341 420.992c126.428 0 228.918 102.481 228.918 228.9 0 126.417-102.49 228.899-228.918 228.899-126.428 0-228.918-102.482-228.918-228.9s102.49-228.9 228.918-228.9z m58.729 135.914l-0.288 0.285-58.637 59.086-58.515-57.048-0.502-0.475c-9.124-8.385-23.323-8.045-32.032 0.886-8.776 9-8.689 23.353 0.124 32.247l0.288 0.285 58.225 56.766-58.495 58.945-0.48 0.497c-8.465 9.05-8.25 23.25 0.605 32.036 8.924 8.854 23.277 8.894 32.25 0.16l0.287-0.285 58.781-59.232 58.371 56.907 0.502 0.475c9.124 8.385 23.323 8.045 32.032-0.887 8.776-9 8.689-23.352-0.124-32.246l-0.288-0.285-58.082-56.625 58.352-58.799 0.48-0.497c8.465-9.049 8.25-23.25-0.605-32.036-8.924-8.854-23.277-8.894-32.25-0.16zM494.629 512.64H217.446l-0.706 0.008c-16.192 0.375-29.202 13.617-29.202 29.898 0 16.352 13.124 29.639 29.414 29.903l0.494 0.004H494.63l0.706-0.008c16.192-0.375 29.203-13.618 29.203-29.899 0-16.516-13.39-29.906-29.909-29.906zM648.454 279.2H217.446l-0.706 0.008c-16.192 0.375-29.202 13.618-29.202 29.899 0 16.351 13.124 29.638 29.414 29.902l0.494 0.004h431.008l0.706-0.008c16.192-0.375 29.203-13.617 29.203-29.898 0-16.517-13.391-29.907-29.91-29.907z"  /></svg>