<?xml version="1.0" standalone="no"?><!DOCTYPE svg PUBLIC "-//W3C//DTD SVG 1.1//EN" "http://www.w3.org/Graphics/SVG/1.1/DTD/svg11.dtd"><svg class="icon" width="600px" height="600.00px" viewBox="0 0 1024 1024" version="1.1" xmlns="http://www.w3.org/2000/svg"><path d="M770.24115 684.200623c-47.547529 0-86.080383 38.54103-86.080383 86.0998 0 47.557749 38.531832 86.098778 86.080383 86.098778 47.546507 0 86.079361-38.54103 86.079361-86.098778C856.319489 722.740631 817.787657 684.199601 770.24115 684.200623zM933.255409 476.888655 856.319489 339.800399c-15.735058-18.968527-26.360335-34.43992-51.647617-34.43992L684.159745 305.360479 684.159745 202.039697c0-18.968527-15.467305-34.438898-34.431745-34.438898L98.814978 167.600798C79.850539 167.600798 64.383234 183.07117 64.383234 202.039697l0 516.598802c0 18.970571 15.467305 34.440942 34.431745 34.440942l68.661142 0C175.919521 693.748758 226.558467 647.81081 288.191617 647.81081S400.464735 693.748758 408.907114 753.079441l240.617517-0.034747c8.47406-59.325573 59.113006-105.233884 120.716519-105.233884 61.634172 0 112.272096 45.93897 120.715497 105.268631l34.229397 0C944.149461 753.079441 959.616766 737.60907 959.616766 718.639521c0 0 0-139.573653 0-172.199601C959.615745 513.814994 933.255409 476.888655 933.255409 476.888655zM718.592511 546.43992 718.592511 374.240319l84.229621 0c5.547178 0 13.249661 8.138858 13.249661 8.138858l72.493477 134.801118c6.42095 9.450028 13.383537 20.650667 13.383537 29.259625L718.592511 546.43992zM288.191617 684.200623c-47.547529 0-86.080383 38.54103-86.080383 86.0998C202.112255 817.858172 240.64511 856.399202 288.191617 856.399202s86.080383-38.54103 86.080383-86.098778C374.272 722.740631 335.738124 684.199601 288.191617 684.200623z" /></svg>