<?xml version="1.0" standalone="no"?><!DOCTYPE svg PUBLIC "-//W3C//DTD SVG 1.1//EN" "http://www.w3.org/Graphics/SVG/1.1/DTD/svg11.dtd"><svg class="icon" width="600px" height="600.00px" viewBox="0 0 1024 1024" version="1.1" xmlns="http://www.w3.org/2000/svg"><path fill="#C2C2C2" d="M7.25325 705.466473a503.508932 503.508932 0 0 0 75.26742 121.391295 95.499302 95.499302 0 0 0 93.211173 31.07039 168.59902 168.59902 0 0 1 114.526906 16.257763 148.487566 148.487566 0 0 1 71.052444 83.456515 91.163899 91.163899 0 0 0 75.989987 61.538643 578.053784 578.053784 0 0 0 148.969278 0A91.163899 91.163899 0 0 0 662.380873 957.642436a148.487566 148.487566 0 0 1 72.256723-83.456515 168.59902 168.59902 0 0 1 114.406478-16.257763 95.61973 95.61973 0 0 0 93.331601-31.07039 503.508932 503.508932 0 0 0 75.267419-121.391295 84.29951 84.29951 0 0 0-18.545892-94.897163 138.251197 138.251197 0 0 1 0-197.140426 84.29951 84.29951 0 0 0 18.545892-94.897163 503.508932 503.508932 0 0 0-75.869559-121.391295 95.499302 95.499302 0 0 0-93.211173-31.070391A168.59902 168.59902 0 0 1 734.637596 149.812272a148.848849 148.848849 0 0 1-72.256723-83.456515A91.163899 91.163899 0 0 0 586.631741 4.817115a581.907476 581.907476 0 0 0-148.969277 0A91.163899 91.163899 0 0 0 361.311193 66.355757a148.848849 148.848849 0 0 1-71.413728 83.456515 168.59902 168.59902 0 0 1-114.406478 16.257763 95.378874 95.378874 0 0 0-93.3316 31.070391A503.508932 503.508932 0 0 0 7.25325 318.531721a84.29951 84.29951 0 0 0 18.545893 94.897163 140.057615 140.057615 0 0 1 41.30676 98.509999 140.057615 140.057615 0 0 1-41.30676 98.630427A84.29951 84.29951 0 0 0 7.25325 705.466473z" /><path d="M512.086889 305.766366a206.292944 206.292944 0 1 0 206.172516 206.172517 206.413372 206.413372 0 0 0-206.172516-206.172517z m123.197713 206.172517a123.197713 123.197713 0 1 1-123.197713-123.077285 123.318141 123.318141 0 0 1 123.197713 123.077285z" fill="#FFFFFF" /></svg>