<?xml version="1.0" standalone="no"?><!DOCTYPE svg PUBLIC "-//W3C//DTD SVG 1.1//EN" "http://www.w3.org/Graphics/SVG/1.1/DTD/svg11.dtd"><svg class="icon" width="600px" height="600.00px" viewBox="0 0 1024 1024" version="1.1" xmlns="http://www.w3.org/2000/svg"><path d="M882.7 603l-294 123.4c-45.5 19.1-96.7 19.1-142.1 0L152.6 603c-14.5-6.1-30.6 4.6-30.6 20.3v274.8c0 12.2 9.9 22.1 22.1 22.1h747.2c12.2 0 22.1-9.9 22.1-22.1V623.4c-0.1-15.8-16.1-26.5-30.7-20.4z"  /><path d="M588.7 676.9l230.4-96.7V152.1c0-17.6-14.2-31.8-31.8-31.8H247.9c-17.6 0-31.8 14.2-31.8 31.8v428.1l230.4 96.7c45.5 19.1 96.7 19.1 142.2 0zM465.6 257.2c0-5.5 4.5-10.1 10.1-10.1h194.9c5.5 0 10.1 4.5 10.1 10.1v24.4c0 5.5-4.5 10.1-10.1 10.1H475.7c-5.5 0-10.1-4.5-10.1-10.1v-24.4z m-80.8-18c16.7 0 30.2 13.5 30.2 30.2s-13.5 30.2-30.2 30.2-30.2-13.5-30.2-30.2c0-16.6 13.5-30.2 30.2-30.2z m-30.2 130.9c0-6.8 5.6-12.4 12.4-12.4h301.3c6.8 0 12.4 5.6 12.4 12.4v19.8c0 6.8-5.6 12.4-12.4 12.4H367c-6.8 0-12.4-5.6-12.4-12.4v-19.8z m0 135.4v-19.8c0-6.8 5.6-12.4 12.4-12.4h301.3c6.8 0 12.4 5.6 12.4 12.4v19.8c0 6.8-5.6 12.4-12.4 12.4H367c-6.8 0-12.4-5.6-12.4-12.4z"  /></svg>