<?xml version="1.0" standalone="no"?><!DOCTYPE svg PUBLIC "-//W3C//DTD SVG 1.1//EN" "http://www.w3.org/Graphics/SVG/1.1/DTD/svg11.dtd"><svg class="icon" width="600px" height="600.00px" viewBox="0 0 1024 1024" version="1.1" xmlns="http://www.w3.org/2000/svg"><path d="M841.34 112.77c0-22.03-17.86-39.9-39.9-39.9h-30.39c-15.23 0-29.84 8.36-35.73 22.41-9.2 21.95-30.83 37.37-56.12 37.37s-46.93-15.42-56.12-37.37c-5.89-14.05-20.5-22.4-35.73-22.4h-20.18c-15.23 0-29.84 8.36-35.73 22.4-9.2 21.95-30.83 37.37-56.12 37.37s-46.93-15.42-56.12-37.37c-5.88-14.04-20.5-22.4-35.73-22.4H364.1c-15.23 0-29.84 8.36-35.73 22.4-9.2 21.95-30.83 37.37-56.12 37.37s-46.93-15.42-56.12-37.37c-5.88-14.05-20.5-22.41-35.73-22.41h-30.65c-22.03 0-39.9 17.86-39.9 39.9v179.25h731.47V112.77zM513.32 741.4c11.03-95.16 86.19-174.29 180.68-190.06 41.97-7.01 82.02-1.85 117.56 12.28 14.34 5.7 29.79-4.54 29.79-19.97V328.74H109.92v585.14c0 20.11 16.46 36.57 36.57 36.57h405.45c19.16 0 28.46-22.48 15.67-36.76-40.03-44.73-61.98-105.97-54.29-172.29z m-73.8-215.23c0 12.19-9.88 22.06-22.06 22.06h-175.3c-12.19 0-22.06-9.88-22.06-22.06v-29.02c0-12.19 9.88-22.06 22.06-22.06h175.3c12.19 0 22.06 9.88 22.06 22.06v29.02z"  /><path d="M732.21 584.74c-100.99 0-182.86 81.87-182.86 182.86s81.87 182.86 182.86 182.86c100.99 0 182.86-81.87 182.86-182.86S833.2 584.74 732.21 584.74z m85.1 163.15l-83.66 96.24c-5.35 6.16-14.71 6.74-20.78 1.3l-62.08-55.62c-6.01-5.39-6.52-14.63-1.13-20.64l17.1-19.09c5.39-6.01 14.62-6.52 20.64-1.13l31.67 28.37 56.85-65.43c5.3-6.09 14.53-6.74 20.62-1.44l19.33 16.82c6.1 5.3 6.74 14.53 1.44 20.62z"  /></svg>