<?xml version="1.0" standalone="no"?><!DOCTYPE svg PUBLIC "-//W3C//DTD SVG 1.1//EN" "http://www.w3.org/Graphics/SVG/1.1/DTD/svg11.dtd"><svg class="icon" width="600px" height="600.00px" viewBox="0 0 1024 1024" version="1.1" xmlns="http://www.w3.org/2000/svg"><path d="M837.32992 161.28h-93.696V107.52h-70.656v53.76H343.04V107.52H272.384v53.76H186.66496A105.14432 105.14432 0 0 0 81.92 266.58304v544.59904A105.14432 105.14432 0 0 0 186.66496 916.48h650.66496A105.14432 105.14432 0 0 0 942.08 811.18208V266.58304A105.14432 105.14432 0 0 0 837.32992 161.28zM293.376 755.85024a51.92704 51.92704 0 1 1 51.65568-51.92704A51.79392 51.79392 0 0 1 293.376 755.85024z m0-165.0432a51.92704 51.92704 0 1 1 51.65568-51.92192A51.7888 51.7888 0 0 1 293.376 590.80704z m204.22144 165.0432a51.92704 51.92704 0 1 1 51.65056-51.92704 51.79392 51.79392 0 0 1-51.6608 51.92704z m0-165.0432a51.92704 51.92704 0 1 1 51.65056-51.92192 51.7888 51.7888 0 0 1-51.6608 51.92192z m295.424-46.44864l-69.41184 86.016a21.32992 21.32992 0 0 1-30.11584 3.15904l-47.104-38.43072a32.33792 32.33792 0 0 1-4.70016-45.32224 31.93856 31.93856 0 0 1 45.0816-4.72576l13.96736 11.38688 42.496-52.6848a31.93344 31.93344 0 0 1 45.0816-4.72576 32.3328 32.3328 0 0 1 4.71552 45.32736z m83.968-183.39328a32.13824 32.13824 0 0 1-32.05632 32.22016H176.98816a32.13824 32.13824 0 0 1-32.0512-32.22016 32.13824 32.13824 0 0 1 32.0512-32.22016h667.97568a32.13824 32.13824 0 0 1 32.05632 32.22016z"  /></svg>